<?xml version="1.0" encoding="UTF-8" standalone="no"?>
<svg
   xmlns:dc="http://purl.org/dc/elements/1.1/"
   xmlns:cc="http://creativecommons.org/ns#"
   xmlns:rdf="http://www.w3.org/1999/02/22-rdf-syntax-ns#"
   xmlns:svg="http://www.w3.org/2000/svg"
   xmlns="http://www.w3.org/2000/svg"
   xmlns:sodipodi="http://sodipodi.sourceforge.net/DTD/sodipodi-0.dtd"
   xmlns:inkscape="http://www.inkscape.org/namespaces/inkscape"
   width="274.39999"
   height="274.39999"
   version="1.1"
   id="svg2"
   inkscape:version="0.48.4 r9939"
   sodipodi:docname="nay.svg">
  <metadata
     id="metadata10">
    <rdf:RDF>
      <cc:Work
         rdf:about="">
        <dc:format>image/svg+xml</dc:format>
        <dc:type
           rdf:resource="http://purl.org/dc/dcmitype/StillImage" />
      </cc:Work>
    </rdf:RDF>
  </metadata>
  <defs
     id="defs8" />
  <sodipodi:namedview
     pagecolor="#ffffff"
     bordercolor="#666666"
     borderopacity="1"
     objecttolerance="10"
     gridtolerance="10"
     guidetolerance="10"
     inkscape:pageopacity="0"
     inkscape:pageshadow="2"
     inkscape:window-width="1920"
     inkscape:window-height="1056"
     id="namedview6"
     showgrid="false"
     fit-margin-top="0"
     fit-margin-left="0"
     fit-margin-right="0"
     fit-margin-bottom="0"
     inkscape:zoom="0.62933332"
     inkscape:cx="10.607308"
     inkscape:cy="133.451"
     inkscape:window-x="0"
     inkscape:window-y="24"
     inkscape:window-maximized="1"
     inkscape:current-layer="svg2" />
  <path
     unicode=""
     d="m 222.32,1.96 49.84,50.12 q 2.24,2.24 2.24,5.18 0,2.94 -2.24,4.9 l -74.76,75.04 74.76,75.04 q 2.24,1.96 2.24,4.9 0,2.94 -2.24,5.18 l -49.84,49.84 q -2.24,2.24 -5.18,2.24 -2.94,0 -4.9,-2.24 L 137.2,197.4 62.16,272.16 q -1.96,2.24 -4.9,2.24 -2.94,0 -5.18,-2.24 L 2.24,222.32 Q 0,220.08 0,217.14 0,214.2 2.24,212.24 L 77,137.2 2.24,62.16 Q 0,60.2 0,57.26 0,54.32 2.24,52.08 L 52.08,2.24 Q 54.32,0 57.26,0 60.2,0 62.16,2.24 L 137.2,77 212.24,1.96 Q 214.2,0 217.14,0 q 2.94,0 5.18,1.96 z"
     id="path4"
     inkscape:connector-curvature="0"
     style="fill:#ffffff" />
</svg>
