<?xml version="1.0" encoding="UTF-8" standalone="no"?>
<svg
   xmlns:dc="http://purl.org/dc/elements/1.1/"
   xmlns:cc="http://creativecommons.org/ns#"
   xmlns:rdf="http://www.w3.org/1999/02/22-rdf-syntax-ns#"
   xmlns:svg="http://www.w3.org/2000/svg"
   xmlns="http://www.w3.org/2000/svg"
   xmlns:sodipodi="http://sodipodi.sourceforge.net/DTD/sodipodi-0.dtd"
   xmlns:inkscape="http://www.inkscape.org/namespaces/inkscape"
   width="341.04001"
   height="283.35999"
   version="1.1"
   id="svg2987"
   inkscape:version="0.48.4 r9939"
   sodipodi:docname="yay.svg">
  <metadata
     id="metadata2995">
    <rdf:RDF>
      <cc:Work
         rdf:about="">
        <dc:format>image/svg+xml</dc:format>
        <dc:type
           rdf:resource="http://purl.org/dc/dcmitype/StillImage" />
      </cc:Work>
    </rdf:RDF>
  </metadata>
  <defs
     id="defs2993" />
  <sodipodi:namedview
     pagecolor="#ffffff"
     bordercolor="#666666"
     borderopacity="1"
     objecttolerance="10"
     gridtolerance="10"
     guidetolerance="10"
     inkscape:pageopacity="0"
     inkscape:pageshadow="2"
     inkscape:window-width="1920"
     inkscape:window-height="1056"
     id="namedview2991"
     showgrid="false"
     fit-margin-top="0"
     fit-margin-left="0"
     fit-margin-right="0"
     fit-margin-bottom="0"
     inkscape:zoom="0.15733333"
     inkscape:cx="-1098.7766"
     inkscape:cy="88.680012"
     inkscape:window-x="0"
     inkscape:window-y="24"
     inkscape:window-maximized="1"
     inkscape:current-layer="svg2987" />
  <path
     unicode=""
     d="M 119.56,162.12 279.44,2.24 Q 281.68,0 284.48,0 q 2.8,0 4.76,2.24 L 338.8,51.8 q 2.24,1.96 2.24,4.76 0,2.8 -2.24,5.04 L 119.56,281.12 q -1.96,2.24 -4.9,2.24 -2.94,0 -4.9,-2.24 L 2.24,173.6 Q 0,171.36 0,168.56 0,165.76 2.24,163.8 L 51.8,114.24 q 1.96,-2.24 4.76,-2.24 2.8,0 5.04,2.24 l 47.88,47.88 q 1.96,1.96 5.04,1.96 3.08,0 5.04,-1.96 z"
     id="path2989"
     inkscape:connector-curvature="0"
     style="fill:#ffffff" />
</svg>
